HIERARCHY
ROOT Hips
{
	OFFSET 0.0000 0.0000 0.0000
	CHANNELS 6 Xposition Yposition Zposition Zrotation Xrotation Yrotation
	JOINT Ab
	{
		OFFSET -0.0000 8.1305 -0.0000
		CHANNELS 3 Zrotation Xrotation Yrotation
		JOINT Chest
		{
			OFFSET -0.0000 26.2902 -0.0000
			CHANNELS 3 Zrotation Xrotation Yrotation
			JOINT Neck
			{
				OFFSET -0.0000 26.2902 0.0000
				CHANNELS 3 Zrotation Xrotation Yrotation
				JOINT Head
				{
					OFFSET -0.0000 10.8167 0.0000
					CHANNELS 3 Zrotation Xrotation Yrotation
					End Site
					{
						OFFSET -0.0000 16.7167 0.0000
					}
				}
			}
			JOINT LeftCollar
			{
				OFFSET -0.0000 26.2902 0.0000
				CHANNELS 3 Zrotation Xrotation Yrotation
				JOINT LeftShoulder
				{
					OFFSET 19.6667 -0.0000 0.0000
					CHANNELS 3 Zrotation Xrotation Yrotation
					JOINT LeftElbow
					{
						OFFSET 27.2190 0.0000 0.0000
						CHANNELS 3 Zrotation Xrotation Yrotation
						JOINT LeftWrist
						{
							OFFSET 30.7431 0.0000 0.0000
							CHANNELS 3 Zrotation Xrotation Yrotation
							End Site
							{
								OFFSET 0.0000 -14.7500 0.0000
							}
						}
					}
				}
			}
			JOINT RightCollar
			{
				OFFSET -0.0000 26.2902 0.0000
				CHANNELS 3 Zrotation Xrotation Yrotation
				JOINT RightShoulder
				{
					OFFSET -19.6667 0.0000 0.0000
					CHANNELS 3 Zrotation Xrotation Yrotation
					JOINT RightElbow
					{
						OFFSET -27.2190 0.0000 0.0000
						CHANNELS 3 Zrotation Xrotation Yrotation
						JOINT RightWrist
						{
							OFFSET -30.7431 0.0000 0.0000
							CHANNELS 3 Zrotation Xrotation Yrotation
							End Site
							{
								OFFSET -0.0000 -14.7500 0.0000
							}
						}
					}
				}
			}
		}
	}
	JOINT LeftHip
	{
		OFFSET 11.8000 0.0000 0.0000
		CHANNELS 3 Zrotation Xrotation Yrotation
		JOINT LeftKnee
		{
			OFFSET -0.0000 -39.7832 0.0000
			CHANNELS 3 Zrotation Xrotation Yrotation
			JOINT LeftAnkle
			{
				OFFSET -0.0000 -41.7317 0.0000
				CHANNELS 3 Zrotation Xrotation Yrotation
				End Site
				{
					OFFSET -0.0000 -4.9167 16.7167
				}
			}
		}
	}
	JOINT RightHip
	{
		OFFSET -11.8000 0.0000 0.0000
		CHANNELS 3 Zrotation Xrotation Yrotation
		JOINT RightKnee
		{
			OFFSET -0.0000 -39.7832 0.0000
			CHANNELS 3 Zrotation Xrotation Yrotation
			JOINT RightAnkle
			{
				OFFSET -0.0000 -41.7317 0.0000
				CHANNELS 3 Zrotation Xrotation Yrotation
				End Site
				{
					OFFSET -0.0000 -4.9167 16.7167
				}
			}
		}
	}
}
MOTION
Frames: 16
Frame Time: 0.010000
-19.4833 97.1036 178.5141 358.5080 357.3566 181.8742 357.8246 348.1101 0.0039 2.4553 10.2681 0.0114 358.3621 356.2214 0.6380 358.1228 4.8136 0.7690 339.8883 357.4157 14.5424 316.3914 57.3920 342.1052 9.3920 357.1662 326.5115 87.5211 357.6878 346.5885 27.6559 355.8449 343.1896 46.4272 44.1837 2.5014 340.0748 354.4333 30.9137 270.5657 354.7420 9.8300 355.6221 3.3656 359.2071 357.6558 5.7835 5.4129 354.9980 352.2079 14.4679 358.6444 6.2292 11.7833 6.2905 5.5300 9.3188 349.1978 343.6808 311.2964 
-19.5119 97.0988 178.4920 358.5142 357.3291 181.8565 357.8210 348.1113 0.0110 2.4625 10.2820 0.0101 358.3736 356.2294 0.6461 358.0972 4.8297 0.7796 339.8848 357.4023 14.5483 316.4414 57.4211 342.0448 9.4229 357.1788 326.5572 87.7745 357.6405 346.7490 27.6414 355.8510 343.1899 46.4213 44.2332 2.5407 339.9848 354.4140 30.9458 271.0288 354.5936 9.0403 355.6127 3.3575 359.1883 357.6437 5.7762 5.4374 355.0403 352.2040 14.4794 358.6291 6.1936 11.7886 6.2975 5.5665 9.2931 349.1832 343.6690 311.3298 
-19.5432 97.0960 178.4695 358.5181 357.2983 181.8458 357.8132 348.1076 0.0116 2.4653 10.2959 0.0119 358.4153 356.2379 0.6528 358.0381 4.8550 0.7885 339.8937 357.4134 14.5385 316.4356 57.4245 342.0438 9.4005 357.1703 326.5696 87.8939 357.6260 346.7855 27.6360 355.8374 343.1921 46.4233 44.2759 2.5394 339.9412 354.3996 30.9556 271.1712 354.5682 8.8491 355.5990 3.3426 359.1571 357.6347 5.7794 5.4380 355.0365 352.1824 14.5033 358.6102 6.1655 11.7943 6.3027 5.5869 9.2837 349.1634 343.6846 311.3925 
-19.5737 97.0922 178.4464 358.5239 357.2692 181.8322 357.8046 348.1081 0.0165 2.4726 10.3095 0.0165 358.4560 356.2314 0.6558 357.9756 4.8986 0.7940 339.9014 357.4167 14.5216 316.3951 57.4135 342.0837 9.4203 357.1569 326.5577 87.8924 357.6215 346.7837 27.6360 355.8363 343.1986 46.4280 44.2894 2.5264 339.9366 354.4005 30.9752 271.1586 354.5969 8.8079 355.5881 3.3322 359.1366 357.6259 5.7774 5.4391 355.0347 352.1628 14.5312 358.5920 6.1325 11.7853 6.3141 5.6223 9.3007 349.1541 343.6646 311.3845 
-19.6055 97.0878 178.4232 358.5291 357.2379 181.8210 357.7934 348.1095 0.0217 2.4826 10.3214 0.0193 358.4719 356.2196 0.6588 357.9576 4.9479 0.7960 339.9017 357.4128 14.5069 316.3624 57.3897 342.1259 9.4386 357.1545 326.5360 87.8037 357.6147 346.7238 27.6400 355.8473 343.2098 46.4310 44.2647 2.5111 339.9708 354.4081 31.0015 271.1260 354.6157 8.8391 355.5609 3.2896 359.1338 357.6477 5.8312 5.4586 355.0512 352.1130 14.4994 358.5711 6.0920 11.7359 6.3278 5.6714 9.3622 349.0457 343.6863 311.3118 
-19.6410 97.0829 178.3999 358.5267 357.2093 181.8200 357.7868 348.1225 0.0148 2.4662 10.3161 0.0171 358.4862 356.2272 0.6599 357.9748 4.9826 0.7949 339.9096 357.4257 14.4846 316.3288 57.3618 342.1744 9.4049 357.1530 326.5276 87.7817 357.6087 346.6360 27.6491 355.8245 343.2133 46.4371 44.2891 2.5046 339.9492 354.3758 30.9934 271.1552 354.6233 8.8678 355.5271 3.2590 359.1037 357.6590 5.8667 5.4891 355.0516 352.0796 14.4886 358.5409 6.0611 11.6856 6.3397 5.7057 9.4114 348.6507 343.9330 311.2878 
-19.6743 97.0757 178.3822 358.5415 357.1649 181.8165 357.8053 348.1266 0.0146 2.4460 10.3162 0.0048 358.4922 356.2327 0.6557 357.9665 4.9949 0.7942 339.9126 357.4222 14.5036 316.3957 57.3763 342.0901 9.4399 357.1512 326.5625 87.6890 357.5955 346.6191 27.6619 355.8487 343.2240 46.4085 44.2864 2.5111 340.0016 354.4040 31.0374 271.1879 354.6136 8.7828 355.5234 3.2235 359.0982 357.6531 5.8770 5.4547 355.0897 352.0543 14.5021 358.5260 6.0091 11.6928 6.3619 5.7373 9.3902 349.0944 343.6047 311.3178 
-19.7085 97.0710 178.3557 358.5510 357.1381 181.8060 357.8009 348.1355 0.0187 2.4554 10.3334 0.0161 358.5113 356.2300 0.6506 357.9423 5.0191 0.7881 339.9130 357.4182 14.5216 316.4661 57.4308 341.9691 9.4692 357.1419 326.6733 87.7047 357.5406 346.6270 27.6416 355.8521 343.1977 46.3984 44.3559 2.5785 339.9321 354.3797 30.9956 271.2409 354.6751 8.8727 355.5110 3.2188 359.0754 357.6476 5.8722 5.4690 355.1282 352.0394 14.5066 358.5042 5.9871 11.7164 6.3865 5.7524 9.3690 349.1821 343.5243 311.3171 
-19.7420 97.0659 178.3301 358.5634 357.1089 181.7897 357.7934 348.1410 0.0264 2.4697 10.3555 0.0296 358.7364 356.0679 0.6650 357.5718 5.3212 0.8217 339.8941 357.4145 14.5274 316.5375 57.4147 341.9223 9.4499 357.1588 326.6458 87.7750 357.5545 346.6665 27.6244 355.8427 343.1758 46.3931 44.4140 2.6230 339.9051 354.3911 30.9522 271.0844 354.6968 9.0388 355.5048 3.2163 359.0613 357.6376 5.8574 5.4694 355.1152 352.0209 14.5213 358.4884 5.9498 11.7212 6.4034 5.7941 9.3733 349.1759 343.5163 311.3550 
-19.7765 97.0610 178.3117 358.5721 357.0617 181.7805 357.7869 348.1403 0.0306 2.4710 10.3660 0.0327 358.6988 356.0979 0.6449 357.6531 5.2826 0.7988 339.9100 357.4096 14.5393 316.5452 57.4371 341.8884 9.4956 357.1493 326.6329 87.8200 357.5699 346.7388 27.6235 355.8424 343.1669 46.3924 44.4210 2.6335 339.9578 354.4170 30.9351 270.7612 354.7511 9.3872 355.4926 3.1830 359.0407 357.6299 5.8556 5.4819 355.1927 352.0126 14.5205 358.4696 5.8802 11.6987 6.4188 5.8614 9.3909 349.0125 343.6138 311.4019 
-19.8171 97.0582 178.2971 358.5688 357.0091 181.7779 357.7762 348.1402 0.0329 2.4602 10.3720 0.0364 358.7001 356.0992 0.6321 357.6757 5.2949 0.7804 339.9310 357.4293 14.5393 316.5337 57.4422 341.8703 9.5084 357.1590 326.6326 87.8670 357.5726 346.7726 27.6188 355.8424 343.1645 46.4066 44.4348 2.6452 339.9470 354.3904 30.9351 270.8180 354.7222 9.3471 355.4580 3.1320 359.0008 357.6320 5.8753 5.5077 355.1683 351.9905 14.5222 358.4306 5.8041 11.6819 6.4459 5.9231 9.3936 348.6044 343.8598 311.3954 
-19.8519 97.0507 178.2773 358.5918 356.9686 181.7716 357.7695 348.1477 0.0431 2.4881 10.3822 0.0415 358.8295 356.0116 0.6409 357.4589 5.4796 0.8008 339.9032 357.4032 14.5401 316.6173 57.4223 341.8068 9.5017 357.1413 326.6346 87.8927 357.5704 346.7690 27.6066 355.8342 343.1699 46.4147 44.4494 2.6403 339.9128 354.3911 30.9447 270.8807 354.6774 9.2725 355.4644 3.1032 359.0048 357.6174 5.8830 5.4852 355.2085 351.9734 14.5302 358.4242 5.7435 11.7229 6.4732 5.9755 9.3633 348.5949 343.8292 311.3807 
-19.8913 97.0439 178.2539 358.6035 356.9359 181.7634 357.7696 348.1626 0.0487 2.4841 10.3923 0.0474 358.8785 356.0027 0.6363 357.3928 5.5305 0.8002 339.8842 357.4081 14.5236 316.7052 57.3887 341.7733 9.4162 357.1661 326.6150 88.0075 357.5692 346.7930 27.6061 355.8466 343.1692 46.4169 44.4181 2.6458 339.9435 354.3973 30.9474 270.8924 354.7677 9.5723 355.4520 3.0867 358.9913 357.6114 5.8842 5.4708 355.2601 351.9584 14.5490 358.4040 5.6934 11.7336 6.5036 6.0289 9.3113 348.6073 343.7919 311.4058 
-19.9324 97.0384 178.2286 358.6109 356.9009 181.7614 357.8462 348.1385 0.0376 2.3525 10.4868 0.0377 358.9769 355.9017 0.6053 357.2374 5.6484 0.7773 339.9461 357.4210 14.5473 316.7990 57.3572 341.6389 9.4201 357.1681 326.6180 88.0026 357.5359 346.7496 27.6417 355.8350 343.1746 46.4252 44.4155 2.6993 339.9534 354.3939 30.9397 270.7789 354.7103 9.6044 355.4331 3.0665 358.9628 357.6065 5.8893 5.4848 355.2275 351.9361 14.5552 358.3887 5.6223 11.5912 6.5083 6.1443 9.4480 348.9072 343.5284 311.4103 
-19.9745 97.0340 178.2030 358.6166 356.8597 181.7631 357.9002 348.0986 0.0272 2.2605 10.6030 0.0327 359.0887 355.7844 0.5764 357.0327 5.7775 0.7598 340.0101 357.4181 14.5692 316.7915 57.3342 341.5779 9.5030 357.1401 326.6138 87.8800 357.5049 346.6534 27.6542 355.8182 343.1793 46.4097 44.4515 2.7821 339.9455 354.3893 30.9292 270.6734 354.6226 9.5064 355.4137 2.9999 358.8871 357.5893 5.9729 5.5357 355.3188 351.8820 14.5654 358.3661 5.5589 11.5816 6.5256 6.2215 9.4660 349.0072 343.4134 311.3930 
-20.0186 97.0297 178.1791 358.6201 356.8199 181.7677 357.8753 348.0955 0.0287 2.2999 10.6424 0.0384 359.0982 355.7835 0.5802 356.9917 5.7904 0.7651 340.0006 357.4072 14.5685 316.7476 57.3137 341.6254 9.5077 357.1465 326.5572 88.0274 357.5361 346.7286 27.6239 355.8444 343.1990 46.3919 44.4543 2.8135 339.9769 354.4033 30.9448 270.6398 354.6340 9.4880 355.3913 2.8792 358.7557 357.5643 6.1626 5.6232 355.3579 351.7742 14.5880 358.3374 5.4987 11.5789 6.5508 6.2900 9.4410 348.5083 343.7093 311.3809 
